<?xml version="1.0" encoding="UTF-8"?> <!-- Generator: Adobe Illustrator 24.2.0, SVG Export Plug-In . SVG Version: 6.00 Build 0) --> <svg xmlns="http://www.w3.org/2000/svg" xmlns:xlink="http://www.w3.org/1999/xlink" id="Layer_1" x="0px" y="0px" viewBox="0 0 1327.6 521.6" style="enable-background:new 0 0 1327.6 521.6;" xml:space="preserve"> <style type="text/css"> .st0{fill:#003767;} .st1{fill:#EFA020;} .st2{fill:#EFA023;} </style> <path class="st0" d="M188,302.4h54.7l111-247.5h-76.6l-52.5,138.5c-1.1,2.8-4.4,13.8-9.2,33.2c-4.8-19.4-7.8-30.4-8.9-33.2 L153.6,54.9H77.1L188,302.4z M372.6,302.4h64.4V131.7h-64.4V302.4z M369.3,78.4c0,17.6,15.5,33.6,35.5,33.6 c19.2,0,35.5-14.9,35.5-33.6s-15.9-33.3-35.5-33.3S369.3,60.4,369.3,78.4 M469.1,288.2c24.8,14.2,51.8,20.8,83.2,20.8 c48.4,0,78.4-24.2,78.4-58.5c0-27.3-17-41.9-51.8-51.6c-25.5-7.3-41.8-8-41.8-19.7c0-8,7.4-12.5,22.2-12.5c17,0,34.8,5.2,52.5,16.6 l13.3-41.5c-25.1-10.4-48.8-15.6-72.9-15.6c-47.7,0-74,23.6-74,54.7c0,26,17.4,41.5,55.2,50.9c24,5.9,38.8,5.9,38.8,20.1 c0,9-8.5,14.2-24.7,14.2c-22.2,0-46.2-8.3-65.1-23.9L469.1,288.2z M675.1,302.4h63.2V174.3h27.4v-42.6h-27.4V80.8h-63.2v50.9h-27.4 v42.6h27.4V302.4z M984.7,229v-2.7c0-62.7-38.5-100.1-97.6-100.1c-60.7,0-101.8,41.2-101.8,92.8s38.9,90,105.5,90 c43.3,0,73.2-15.2,84.7-40.9l-48.5-18.4c-7,13.5-20.3,20.4-39.9,20.4c-25.9,0-40.7-14.5-41.1-41.2L984.7,229z M921.5,195.1h-74 c3.7-21.5,16.6-32.2,37.3-32.2C904.1,162.9,919.2,175.3,921.5,195.1 M1078.8,160.8l-17-29.1h-70.3l61.4,79.3l-71.8,91.4h71.4 l27-42.9c4.1-6.2,6.7-12.8,8.9-20.4c1.9,7.2,4.9,14.1,8.9,20.4l27.4,42.9h72.5l-72.9-91.4l62.5-79.3H1114l-17.4,29.1 c-4,6.3-7,13.2-8.9,20.4C1085.7,174,1082.8,167.1,1078.8,160.8"></path> <path class="st0" d="M1243.1,143.2c0-9.7-8.2-17.3-18.5-17.3c-10.3,0-18.5,7.7-18.5,17.3s8.2,17.3,18.5,17.3 C1234.9,160.5,1243.1,152.8,1243.1,143.2 M1201.3,143.1c0.1-12,10.6-21.8,23.4-21.8c12.8,0,23.4,10,23.3,21.9 c-0.1,12-10.7,21.8-23.4,21.7S1201.2,155.1,1201.3,143.1"></path> <path class="st0" d="M1220.7,141.4c1.1,0,2,0,2.9,0c0.4,0,0.8-0.1,1.2-0.2c1.3-0.1,2.2-1.3,2.1-2.6c0,0,0,0,0-0.1 c0.1-1.6-0.5-2.6-2-2.9c-1.4-0.1-2.8-0.1-4.2,0V141.4z M1229.3,143.2c1.1,0.9,2,1.9,2.9,3.1c1.5,2.5,2.9,5.1,4.3,7.8 c-2.3,0-4.3,0-6.2,0c-0.4-0.1-0.7-0.4-0.9-0.7c-1-1.8-1.9-3.6-2.9-5.4c-1.2-2.2-2.9-2.9-5.7-2.3v8.4h-6.2v-22.6c0,0,0.1-0.1,0.1-0.1 c4.5,0.1,8.9,0,13.3,0.4c3.5,0.3,5,2.2,5.4,5.1c0.3,2.9-0.9,5-3.9,6.4C1229.4,143.2,1229.3,143.3,1229.3,143.2"></path> <path class="st1" d="M220.6,459.7l-50.8-69.5v69.5h-10.8v-87.2H170l50.2,68.1v-68.1h10.8v87.2H220.6z"></path> <path class="st1" d="M247.4,428.1c0-18.3,12-33.1,31.2-33.1c19.2,0,31.2,14.8,31.2,33.1c0,18.3-12,33.2-31.3,33.2 C259.4,461.3,247.4,446.4,247.4,428.1z M299.6,428.1c0-12.8-7.4-24.3-20.9-24.3c-13.5,0-20.9,11.5-20.9,24.3 c0,12.8,7.5,24.4,20.9,24.4C292.1,452.5,299.5,441,299.6,428.1L299.6,428.1z"></path> <path class="st1" d="M380.5,459.7L364,409l-16.5,50.7h-9.8l-20.1-63.1h10.2l15.4,50.3l16.6-50.3h8.5l16.5,50.3l15.4-50.3h10.3 l-20.1,63.1L380.5,459.7z"></path> <path class="st1" d="M453.9,381c0-3.7,3-6.7,6.7-6.7c3.6,0,6.6,3,6.5,6.6c0,0,0,0,0,0c0,3.6-2.8,6.5-6.4,6.5c0,0-0.1,0-0.1,0 C456.9,387.6,453.9,384.7,453.9,381C453.9,381,453.9,381,453.9,381z M455.6,459.7v-63.1h9.8v63.1H455.6z"></path> <path class="st1" d="M487,446.5v-41.3h-10.5v-8.6H487v-17.3h9.9v17.3h12.8v8.6h-12.8v39.2c0,4.7,2.1,8.1,6.3,8.1 c2.5,0,4.9-1,6.7-2.7l2.9,7.4c-2.5,2.4-6,4.1-11.6,4.1C491.7,461.3,487,455.9,487,446.5z"></path> <path class="st1" d="M603,459.7v-9.4c-5,6.8-12.9,10.9-21.3,11c-16.5,0-28.1-12.6-28.1-33.1c0-20.3,11.6-33.2,28.1-33.2 c8.5,0.1,16.4,4.2,21.3,11.1v-9.5h9.8v63.1L603,459.7z M603,442.4v-28.5c-3.4-5.5-11.1-10.2-18.8-10.2c-12.8,0-20.4,10.5-20.4,24.4 s7.6,24.3,20.4,24.3C591.9,452.5,599.6,447.9,603,442.4z"></path> <path class="st1" d="M632.4,446.5v-74h9.8v71.9c0,4.7,2.1,8.1,6.4,8.1c2.5,0,4.8-1,6.6-2.7l3,7.4c-2.6,2.4-6,4.1-11.8,4.1 C637.1,461.3,632.4,455.9,632.4,446.5z"></path> <path class="st1" d="M667.6,446.5v-74h9.8v71.9c0,4.7,2.1,8.1,6.4,8.1c2.5,0,4.9-1,6.6-2.7l3,7.4c-2.6,2.4-6,4.1-11.8,4.1 C672.3,461.3,667.6,455.9,667.6,446.5z"></path> <path class="st1" d="M776.6,459.7v-7.3c-5.2,6-11.6,8.9-18.7,8.9c-15.6,0-27.8-11.8-27.8-33.2c0-20.7,12-33.1,27.8-33.1 c7.3-0.1,14.1,3.3,18.6,9v-7.4h20.1v63.1L776.6,459.7z M776.6,437.7v-19.2c-2.6-3.4-7.8-5.6-12.2-5.6c-8,0-13.9,5.8-13.9,15.2 s5.9,15.4,13.9,15.4C768.7,443.5,774,441.1,776.6,437.7L776.6,437.7z"></path> <path class="st1" d="M853.8,459.7v-7.3c-5.2,6-11.6,8.9-18.7,8.9c-15.6,0-27.8-11.8-27.8-33.2c0-20.7,12-33.1,27.8-33.1 c7.3-0.1,14.2,3.2,18.7,9v-31.5h20v87.2H853.8z M853.8,437.7v-19.4c-2.6-3.4-7.8-5.6-12.2-5.6c-8,0-13.9,5.9-13.9,15.3 s5.9,15.4,13.9,15.4C846,443.5,851.2,441.1,853.8,437.7L853.8,437.7z"></path> <path class="st1" d="M931.1,459.7v-7.3c-5.2,6-11.6,8.9-18.7,8.9c-15.6,0-27.8-11.8-27.8-33.2c0-20.7,12-33.1,27.8-33.1 c7.3-0.1,14.2,3.2,18.7,9v-31.5h20v87.2H931.1z M931.1,437.7v-19.4c-2.6-3.4-7.8-5.6-12.2-5.6c-8,0-13.9,5.9-13.9,15.3 s5.9,15.4,13.9,15.4C923.2,443.5,928.5,441.1,931.1,437.7L931.1,437.7z"></path> <path class="st1" d="M960.5,451.5l8.4-14.4c4.8,4.2,14.8,8.5,22.2,8.5c6,0,8.5-1.7,8.5-4.4c0-7.8-36.7,0.3-36.7-25.4 c0-11.1,9.7-20.8,27.1-20.8c9.5-0.1,18.7,2.8,26.4,8.4l-7.7,14.3c-3.8-3.7-11-6.9-18.6-6.9c-4.7,0-7.8,1.8-7.8,4.3 c0,6.9,36.6-0.3,36.6,25.6c0,12-10.6,20.7-28.6,20.7C978.8,461.3,967.1,457.5,960.5,451.5z"></path> <path class="st1" d="M1105.2,459.7v-7.6c-3.9,4.4-11.1,9.1-21.9,9.1c-14.3,0-20.8-8.2-20.8-19.7v-44.9h20.1v36.6 c0,7.7,3.9,10.3,10.5,10.3c4.8,0,9.2-2.3,12-6.1v-40.8h20.1v63.1H1105.2z"></path> <path class="st1" d="M1160,452.2v31.5h-20.1v-87.2h20.1v7.3c4.5-5.7,11.4-9,18.7-8.9c15.8,0,27.7,11.8,27.7,33.1 c0,21.3-11.9,33.2-27.7,33.2C1171.7,461.3,1165.3,458.5,1160,452.2z M1185.9,428.1c0-9.4-6-15.3-13.8-15.3c-4.3,0-9.5,2.3-12,5.7 v19.2c2.5,3.3,7.7,5.7,12,5.7C1179.9,443.5,1185.9,437.6,1185.9,428.1L1185.9,428.1z"></path> <path class="st2" d="M1231.9,394.9c0.1-5.4-4.1-9.9-9.5-10c-5.4-0.1-9.9,4.1-10,9.5s4.1,9.9,9.5,10c0.1,0,0.2,0,0.2,0 c5.3,0.1,9.6-4,9.8-9.3C1231.9,395,1231.9,395,1231.9,394.9 M1209.9,394.9c-0.2-6.8,5.2-12.4,12-12.6c6.8-0.2,12.4,5.2,12.6,12 c0.2,6.8-5.2,12.4-12,12.6c-0.1,0-0.3,0-0.4,0C1215.4,406.9,1210,401.5,1209.9,394.9"></path> <path class="st2" d="M1220.1,393.9c0.6,0,1.1,0,1.6,0c0.2,0,0.4,0,0.6-0.1c0.7-0.1,1.2-0.7,1.1-1.4c0,0,0,0,0,0 c0-0.9-0.3-1.4-1.1-1.5c-0.7,0-1.5,0-2.2,0L1220.1,393.9z M1224.6,394.9c0.6,0.5,1.1,1.1,1.5,1.7c0.8,1.4,1.5,2.8,2.3,4.3 c-1.2,0-2.2,0-3.3,0c-0.2,0-0.4-0.2-0.5-0.4c-0.5-1-1-2-1.5-3c-0.7-1.2-1.5-1.6-3-1.2v4.6h-3.3v-12.4c0,0,0-0.1,0.1-0.1 c2.3,0.1,4.7,0,7,0.2c1.6,0,2.8,1.2,2.9,2.8C1227,392.9,1226.1,394.4,1224.6,394.9C1224.6,394.9,1224.6,395,1224.6,394.9"></path> </svg> 